<mxfile host="app.diagrams.net" agent="Mozilla/5.0 (Windows NT 10.0; Win64; x64) AppleWebKit/537.36 (KHTML, like Gecko) Chrome/139.0.0.0 Safari/537.36 Edg/139.0.0.0" version="27.1.6">
  <diagram name="Page-1" id="3CV-syrtmnGgcGUtcbxZ">
    <mxGraphModel dx="1097" dy="698" grid="1" gridSize="10" guides="1" tooltips="1" connect="1" arrows="1" fold="1" page="1" pageScale="1" pageWidth="1600" pageHeight="900" math="0" shadow="0">
      <root>
        <mxCell id="0" />
        <mxCell id="1" parent="0" />
        <mxCell id="vXQ96M-JIcB51RonOeTq-1" value="" style="triangle;whiteSpace=wrap;html=1;rotation=-180;" vertex="1" parent="1">
          <mxGeometry x="160" y="280" width="130" height="200" as="geometry" />
        </mxCell>
        <mxCell id="vXQ96M-JIcB51RonOeTq-2" value="" style="endArrow=classic;html=1;rounded=0;exitX=0.013;exitY=0.65;exitDx=0;exitDy=0;strokeColor=#FF3333;strokeWidth=4;exitPerimeter=0;" edge="1" parent="1" source="vXQ96M-JIcB51RonOeTq-1">
          <mxGeometry width="50" height="50" relative="1" as="geometry">
            <mxPoint x="300" y="348" as="sourcePoint" />
            <mxPoint x="710" y="188" as="targetPoint" />
            <Array as="points">
              <mxPoint x="530" y="348" />
              <mxPoint x="530" y="188" />
            </Array>
          </mxGeometry>
        </mxCell>
        <mxCell id="vXQ96M-JIcB51RonOeTq-4" value="&lt;font style=&quot;font-size: 18px;&quot;&gt;V+&lt;/font&gt;" style="text;html=1;align=center;verticalAlign=middle;whiteSpace=wrap;rounded=0;" vertex="1" parent="1">
          <mxGeometry x="590" y="160" width="60" height="30" as="geometry" />
        </mxCell>
        <mxCell id="vXQ96M-JIcB51RonOeTq-5" value="" style="endArrow=classic;html=1;rounded=0;exitX=0.007;exitY=0.583;exitDx=0;exitDy=0;strokeColor=#330000;strokeWidth=4;exitPerimeter=0;" edge="1" parent="1" source="vXQ96M-JIcB51RonOeTq-1">
          <mxGeometry width="50" height="50" relative="1" as="geometry">
            <mxPoint x="310" y="370" as="sourcePoint" />
            <mxPoint x="720" y="210" as="targetPoint" />
            <Array as="points">
              <mxPoint x="550" y="360" />
              <mxPoint x="550" y="210" />
            </Array>
          </mxGeometry>
        </mxCell>
        <mxCell id="vXQ96M-JIcB51RonOeTq-6" value="&lt;font style=&quot;font-size: 18px;&quot;&gt;V-&lt;/font&gt;" style="text;html=1;align=center;verticalAlign=middle;whiteSpace=wrap;rounded=0;" vertex="1" parent="1">
          <mxGeometry x="640" y="220" width="60" height="30" as="geometry" />
        </mxCell>
        <mxCell id="vXQ96M-JIcB51RonOeTq-9" value="" style="endArrow=classic;html=1;rounded=0;exitX=0;exitY=0.5;exitDx=0;exitDy=0;strokeWidth=3;strokeColor=#CCCC00;" edge="1" parent="1" source="vXQ96M-JIcB51RonOeTq-1">
          <mxGeometry width="50" height="50" relative="1" as="geometry">
            <mxPoint x="670" y="360" as="sourcePoint" />
            <mxPoint x="750" y="380" as="targetPoint" />
            <Array as="points">
              <mxPoint x="550" y="380" />
            </Array>
          </mxGeometry>
        </mxCell>
        <mxCell id="vXQ96M-JIcB51RonOeTq-10" value="" style="endArrow=classic;html=1;rounded=0;exitX=0.007;exitY=0.381;exitDx=0;exitDy=0;strokeWidth=3;strokeColor=#B3B3B3;exitPerimeter=0;" edge="1" parent="1" source="vXQ96M-JIcB51RonOeTq-1">
          <mxGeometry width="50" height="50" relative="1" as="geometry">
            <mxPoint x="300" y="400" as="sourcePoint" />
            <mxPoint x="750" y="400" as="targetPoint" />
            <Array as="points">
              <mxPoint x="550" y="400" />
            </Array>
          </mxGeometry>
        </mxCell>
        <mxCell id="vXQ96M-JIcB51RonOeTq-11" value="&lt;font style=&quot;font-size: 18px;&quot;&gt;RX&lt;/font&gt;" style="text;html=1;align=center;verticalAlign=middle;whiteSpace=wrap;rounded=0;" vertex="1" parent="1">
          <mxGeometry x="650" y="340" width="60" height="30" as="geometry" />
        </mxCell>
        <mxCell id="vXQ96M-JIcB51RonOeTq-12" value="&lt;span style=&quot;font-size: 18px;&quot;&gt;TX&lt;/span&gt;" style="text;html=1;align=center;verticalAlign=middle;whiteSpace=wrap;rounded=0;" vertex="1" parent="1">
          <mxGeometry x="670" y="410" width="60" height="30" as="geometry" />
        </mxCell>
      </root>
    </mxGraphModel>
  </diagram>
</mxfile>
